<?xml version="1.0" encoding="utf-8"?>
<!-- Generator: Adobe Illustrator 19.0.0, SVG Export Plug-In . SVG Version: 6.00 Build 0)  -->
<svg version="1.1" xmlns="http://www.w3.org/2000/svg" xmlns:xlink="http://www.w3.org/1999/xlink" x="0px" y="0px"
	 viewBox="0 0 800 800" style="enable-background:new 0 0 800 800;" xml:space="preserve">
<style type="text/css">
	.st0{fill:#03A9F4;}
	.st1{clip-path:url(#SVGID_2_);}
	.st2{opacity:0.7;fill:#FFFFFF;}
	.st3{opacity:0.9;fill:#FFFFFF;}
	.st4{fill:#EDEDEF;}
	.st5{fill:#FFFFFF;}
	.st6{fill:#ED3A5A;}
	.st7{fill:#BC3347;}
	.st8{fill:#FEAC1C;}
	.st9{fill:#FE8222;}
	.st10{fill:#DE445E;}
	.st11{fill:#15B0BF;}
	.st12{fill:#1695A4;}
	.st13{fill:#D1ECFB;}
	.st14{fill:none;stroke:#FFFFFF;stroke-width:5;stroke-miterlimit:10;}
	.st15{fill:none;stroke:#FFFFFF;stroke-width:5;stroke-miterlimit:10;stroke-dasharray:11.8277,11.8277;}
	.st16{fill:none;stroke:#FFFFFF;stroke-width:5;stroke-miterlimit:10;stroke-dasharray:10;}
	.st17{fill:none;stroke:#FFFFFF;stroke-width:5;stroke-miterlimit:10;stroke-dasharray:11.7373,11.7373;}
	.st18{fill:#194E7A;}
	.st19{font-family:'BebasNeue';}
	.st20{font-size:43px;}
	.st21{font-size:60px;}
	.st22{opacity:0.95;fill:#FFFFFF;}
	.st23{font-size:45px;}
</style>
<g id="background">
	<rect x="0" class="st0" width="800" height="800"/>
</g>
<g id="Objects">
	<g>
		<defs>
			<rect id="SVGID_1_" width="800" height="800"/>
		</defs>
		<clipPath id="SVGID_2_">
			<use xlink:href="#SVGID_1_"  style="overflow:visible;"/>
		</clipPath>
		<g class="st1">
			<g id="cloud_bg">
				<circle class="st2" cx="311.6" cy="833.6" r="81.5"/>
				<circle class="st2" cx="69.1" cy="717.6" r="81.5"/>
				<circle class="st2" cx="18" cy="632.3" r="99.5"/>
				<circle class="st2" cx="811.5" cy="632.3" r="109.3"/>
				<circle class="st2" cx="736.1" cy="717.6" r="81.5"/>
				<circle class="st3" cx="47.6" cy="764.1" r="61.5"/>
				<circle class="st3" cx="109.1" cy="782.1" r="51.5"/>
				<circle class="st3" cx="174.1" cy="779.1" r="34.5"/>
				<circle class="st3" cx="269" cy="785" r="20.9"/>
				<circle class="st3" cx="228.5" cy="770.8" r="39.3"/>
				<circle class="st2" cx="491.1" cy="799.1" r="81.5"/>
				<circle class="st3" cx="756.1" cy="764.1" r="61.5"/>
				<circle class="st3" cx="681.2" cy="782.1" r="51.5"/>
				<circle class="st3" cx="601.7" cy="764.6" r="49"/>
				<circle class="st3" cx="654.6" cy="697" r="68.5"/>
				<circle class="st3" cx="490.4" cy="785.1" r="28.4"/>
				<circle class="st3" cx="537.9" cy="785.1" r="28.4"/>
			</g>
			<g id="rocket">
				<g>
					<path class="st2" d="M382.9,515.5c0-4.5-3.6-8.1-8.1-8.1c-4.5,0-8.1,3.6-8.1,8.1c0,4.5,8.1,54.6,8.1,54.6
						S382.9,520,382.9,515.5z"/>
					<path class="st2" d="M407.9,565c0-4.5-3.6-8.1-8.1-8.1c-4.5,0-8.1,3.6-8.1,8.1c0,4.5,8.1,54.6,8.1,54.6S407.9,569.5,407.9,565z
						"/>
					<path class="st2" d="M433.9,523.5c0-4.5-3.6-8.1-8.1-8.1c-4.5,0-8.1,3.6-8.1,8.1s8.1,54.6,8.1,54.6S433.9,528,433.9,523.5z"/>
				</g>
				<rect x="367.7" y="481.3" class="st4" width="64.7" height="21.3"/>
				<rect x="367.7" y="481.3" class="st5" width="32.3" height="21.3"/>
				<g>
					<path class="st6" d="M400,473.7c47.9,0,88.8,29.8,105.2,71.9c5-12.7,7.7-26.6,7.7-41.1c0-62.4-50.6-113-112.9-113
						c-62.4,0-112.9,50.6-112.9,112.9c0,14.5,2.8,28.3,7.7,41.1C311.2,503.5,352.1,473.7,400,473.7z"/>
					<path class="st7" d="M428.8,395.3v82.2c35,9.2,63.4,34.8,76.4,68.1c5-12.7,7.7-26.6,7.7-41.1
						C512.9,452.1,477.2,408.1,428.8,395.3z"/>
					<path class="st8" d="M400,488.4c13.9,0,27.3,2.2,39.9,6.2c18.7-37.8,29.9-86.5,29.9-139.7c0-84.6-28.4-157.8-69.8-193.7
						c-41.4,35.9-69.8,109.1-69.8,193.7c0,53.2,11.3,102,29.9,139.7C372.7,490.6,386.1,488.4,400,488.4z"/>
					<path class="st9" d="M400,161.1c-0.1,0.1-0.3,0.3-0.4,0.4l0,326.9c0.1,0,0.3,0,0.4,0c13.9,0,27.3,2.2,39.9,6.2
						c18.7-37.8,29.9-86.5,29.9-139.7C469.8,270.3,441.4,197.1,400,161.1z"/>
					<path class="st10" d="M400,241.2c17.5,0,34.7,0.6,51.5,1.7c-12.3-34.8-30.2-63.3-51.5-81.8c-21.3,18.5-39.2,47-51.5,81.8
						C365.3,241.8,382.5,241.2,400,241.2z"/>
					<path class="st7" d="M399.6,161.5l0,79.7c0.1,0,0.3,0,0.4,0c17.5,0,34.7,0.6,51.5,1.7c-12.3-34.8-30.2-63.3-51.5-81.8
						C399.9,161.3,399.7,161.4,399.6,161.5z"/>
					<path class="st10" d="M400,384.7c-8.9,15-15,45.4-15,80.6c0,35.2,6.1,65.6,15,80.6c8.9-15,15-45.4,15-80.6
						C415,430.1,408.9,399.7,400,384.7z"/>
					<path class="st7" d="M399.6,385.5l0,159.7c0.1,0.2,0.3,0.5,0.4,0.7c8.9-15,15-45.4,15-80.6c0-35.2-6.1-65.6-15-80.6
						C399.9,385,399.7,385.3,399.6,385.5z"/>
					<path class="st11" d="M400,354.9c-21.6,0-39.2-17.6-39.2-39.2c0-21.6,17.6-39.2,39.2-39.2c21.6,0,39.2,17.6,39.2,39.2
						C439.2,337.3,421.6,354.9,400,354.9L400,354.9z"/>
					<path class="st5" d="M400,288.4c-15,0-27.2,12.2-27.3,27.2c0,15,12.2,27.2,27.3,27.2c15,0,27.2-12.2,27.2-27.2
						C427.2,300.6,415,288.4,400,288.4L400,288.4z"/>
					<g>
						<path class="st12" d="M400,276.4c-0.1,0-0.3,0-0.4,0l0,12c0.1,0,0.3,0,0.4,0c15,0,27.2,12.2,27.2,27.2
							c0,15-12.2,27.2-27.2,27.2c-0.1,0-0.3,0-0.4,0l0,12c0.1,0,0.3,0,0.4,0c21.6,0,39.2-17.6,39.2-39.2
							C439.2,294,421.6,276.4,400,276.4z"/>
						<path class="st13" d="M427.2,315.6c0-15-12.2-27.2-27.2-27.2c-0.1,0-0.3,0-0.4,0l0,54.4c0.1,0,0.3,0,0.4,0
							C415,342.9,427.2,330.7,427.2,315.6z"/>
					</g>
				</g>
			</g>
			<g id="arrow">
				<g>
					<g>
						<path class="st14" d="M158.4,497.3c1,1.7,2,3.5,3,5.2"/>
						<path class="st15" d="M167.6,512.5c25.4,38.9,60.8,71.9,105,94.7c116.7,60.1,256.3,29.2,337.7-66.9"/>
						<path class="st14" d="M614.2,535.8c1.3-1.6,2.5-3.1,3.7-4.7"/>
					</g>
				</g>
				<polyline class="st16" points="579.2,531.8 623.1,526.2 611.9,571.8 				"/>
			</g>
			<g id="arrow_1_">
				<g>
					<g>
						<path class="st14" d="M677,363.3c0-2,0-4,0-6"/>
						<path class="st17" d="M676.7,345.6c-4-83.6-46-163.5-117.5-213.5"/>
						<path class="st14" d="M554.3,128.8c-1.7-1.1-3.3-2.2-5-3.3"/>
					</g>
				</g>
				<polyline class="st16" points="564,167 549.3,125.2 596,124 				"/>
			</g>
			<g id="cloud">
				<g>
					<path class="st3" d="M218.8,422.1c0-0.2,0-0.3,0-0.5c0-14.9-12.1-27-27-27c-3.3,0-6.5,0.6-9.5,1.7
						c-6.6-13.7-20.6-23.2-36.8-23.2c-18.7,0-34.4,12.6-39.2,29.7c-4.3-2.6-9.4-4-14.8-4c-16.2,0-29.3,13.1-29.3,29.3
						c-16.2,0-29.3,13.1-29.3,29.3c0,16.2,13.1,29.3,29.3,29.3h136.9c19.5,0,35.3-15.8,35.3-35.3
						C234.4,439.1,228.2,428.4,218.8,422.1z"/>
					<g>
						<text transform="matrix(1 0 0 1 90.4141 457.7803)" class="st18 st19 st20">IDEA</text>
					</g>
				</g>
				<g>
					<path class="st5" d="M509.3,68.4c0-0.2,0-0.4,0-0.6c0-19.1-15.5-34.7-34.7-34.7c-4.3,0-8.4,0.8-12.1,2.2
						c-8.4-17.6-26.4-29.8-47.2-29.8c-23.9,0-44.1,16.1-50.3,38.1c-5.6-3.3-12.1-5.2-19-5.2c-20.8,0-37.6,16.8-37.6,37.6
						c-20.8,0-37.6,16.8-37.6,37.6c0,20.8,16.8,37.6,37.6,37.6H484c25,0,45.2-20.3,45.2-45.2C529.3,90.3,521.3,76.5,509.3,68.4z"/>
					<g>
						<text transform="matrix(1 0 0 1 305.9209 114.5566)" class="st18 st19 st21">success</text>
					</g>
				</g>
				<g>
					<path class="st22" d="M740.6,438.4c0-0.2,0-0.4,0-0.5c0-15.9-12.9-28.7-28.7-28.7c-3.5,0-6.9,0.6-10,1.8
						c-7-14.6-21.9-24.7-39.1-24.7c-19.8,0-36.6,13.3-41.7,31.5c-4.6-2.7-10-4.3-15.8-4.3c-17.2,0-31.2,14-31.2,31.2
						c-17.2,0-31.2,14-31.2,31.2c0,17.2,14,31.2,31.2,31.2h145.6c20.7,0,37.5-16.8,37.5-37.5C757.1,456.5,750.6,445.1,740.6,438.4z"
						/>
					<g>
						<text transform="matrix(1 0 0 1 573.5508 479.6221)" class="st18 st19 st23">strategy</text>
					</g>
				</g>
			</g>
		</g>
	</g>
</g>
</svg>
