<?xml version="1.0" encoding="utf-8"?>
<!-- Generator: Adobe Illustrator 19.0.0, SVG Export Plug-In . SVG Version: 6.00 Build 0)  -->
<svg version="1.1" xmlns="http://www.w3.org/2000/svg" xmlns:xlink="http://www.w3.org/1999/xlink" x="0px" y="0px"
	 viewBox="0 0 350 450" xml:space="preserve">
<style type="text/css">
	.st0{display:none;}
	.st1{opacity:0.7;fill:#FFFFFF;}
	.st2{fill:#EDEDEF;}
	.st3{fill:#ED3A5A;}
	.st4{fill:#BC3347;}
	.st5{fill:#FEAC1C;}
	.st6{fill:#FE8222;}
	.st7{fill:#DE445E;}
	.st8{fill:#15B0BF;}
	.st9{fill:#FFFFFF;}
	.st10{fill:#1695A4;}
	.st11{fill:#D1ECFB;}
</style>
<g id="background" class="st0">
</g>
<g id="Objects">
	<g id="rocket">
		<g>
			<path class="st1" d="M132.9,365.5c0-4.5-3.6-8.1-8.1-8.1c-4.5,0-8.1,3.6-8.1,8.1c0,4.5,8.1,54.6,8.1,54.6S132.9,370,132.9,365.5z"/>
			<path class="st1" d="M157.9,415c0-4.5-3.6-8.1-8.1-8.1c-4.5,0-8.1,3.6-8.1,8.1c0,4.5,8.1,54.6,8.1,54.6S157.9,419.5,157.9,415z"/>
			<path class="st1" d="M183.9,373.5c0-4.5-3.6-8.1-8.1-8.1c-4.5,0-8.1,3.6-8.1,8.1c0,4.5,8.1,54.6,8.1,54.6S183.9,378,183.9,373.5z"/>
		</g>
		<rect x="117.7" y="331.3" class="st2" width="64.7" height="21.3"/>
		<g>
			<path class="st3" d="M150,323.7c47.9,0,88.8,29.8,105.2,71.9c5-12.7,7.7-26.6,7.7-41.1c0-62.4-50.6-113-112.9-113
				c-62.4,0-112.9,50.6-112.9,112.9c0,14.5,2.8,28.3,7.7,41.1C61.2,353.5,102.1,323.7,150,323.7z"/>
			<path class="st4" d="M178.8,245.3v82.2c35,9.2,63.4,34.8,76.4,68.1c5-12.7,7.7-26.6,7.7-41.1
				C262.9,302.1,227.2,258.1,178.8,245.3z"/>
			<path class="st5" d="M150,338.4c13.9,0,27.3,2.2,39.9,6.2c18.7-37.8,29.9-86.5,29.9-139.7c0-84.6-28.4-157.8-69.8-193.7
				c-41.4,35.9-69.8,109.1-69.8,193.7c0,53.2,11.3,102,29.9,139.7C122.7,340.6,136.1,338.4,150,338.4z"/>
			<path class="st6" d="M150,11.1c-0.1,0.1-0.3,0.3-0.4,0.4l0,326.9c0.1,0,0.3,0,0.4,0c13.9,0,27.3,2.2,39.9,6.2
				c18.7-37.8,29.9-86.5,29.9-139.7C219.8,120.3,191.4,47.1,150,11.1z"/>
			<path class="st7" d="M150,91.2c17.5,0,34.7,0.6,51.5,1.7c-12.3-34.8-30.2-63.3-51.5-81.8c-21.3,18.5-39.2,47-51.5,81.8
				C115.3,91.8,132.5,91.2,150,91.2z"/>
			<path class="st4" d="M149.6,11.5l0,79.7c0.1,0,0.3,0,0.4,0c17.5,0,34.7,0.6,51.5,1.7c-12.3-34.8-30.2-63.3-51.5-81.8
				C149.9,11.3,149.7,11.4,149.6,11.5z"/>
			<path class="st7" d="M150,234.7c-8.9,15-15,45.4-15,80.6c0,35.2,6.1,65.6,15,80.6c8.9-15,15-45.4,15-80.6
				C165,280.1,158.9,249.7,150,234.7z"/>
			<path class="st4" d="M149.6,235.5l0,159.7c0.1,0.2,0.3,0.5,0.4,0.7c8.9-15,15-45.4,15-80.6c0-35.2-6.1-65.6-15-80.6
				C149.9,235,149.7,235.3,149.6,235.5z"/>
			<path class="st8" d="M150,204.9c-21.6,0-39.2-17.6-39.2-39.2c0-21.6,17.6-39.2,39.2-39.2c21.6,0,39.2,17.6,39.2,39.2
				C189.2,187.3,171.6,204.9,150,204.9L150,204.9z"/>
			<path class="st9" d="M150,138.4c-15,0-27.2,12.2-27.3,27.2c0,15,12.2,27.2,27.3,27.2c15,0,27.2-12.2,27.2-27.2
				C177.2,150.6,165,138.4,150,138.4L150,138.4z"/>
			<g>
				<path class="st10" d="M150,126.4c-0.1,0-0.3,0-0.4,0l0,12c0.1,0,0.3,0,0.4,0c15,0,27.2,12.2,27.2,27.2c0,15-12.2,27.2-27.2,27.2
					c-0.1,0-0.3,0-0.4,0l0,12c0.1,0,0.3,0,0.4,0c21.6,0,39.2-17.6,39.2-39.2C189.2,144,171.6,126.4,150,126.4z"/>
				<path class="st11" d="M177.2,165.6c0-15-12.2-27.2-27.2-27.2c-0.1,0-0.3,0-0.4,0l0,54.4c0.1,0,0.3,0,0.4,0
					C165,192.9,177.2,180.7,177.2,165.6z"/>
			</g>
		</g>
	</g>
</g>
</svg>
