<?xml version="1.0" encoding="UTF-8" standalone="no"?>
<!-- Created with Inkscape (http://www.inkscape.org/) -->

<svg
   xmlns:dc="http://purl.org/dc/elements/1.1/"
   xmlns:cc="http://creativecommons.org/ns#"
   xmlns:rdf="http://www.w3.org/1999/02/22-rdf-syntax-ns#"
   xmlns:svg="http://www.w3.org/2000/svg"
   xmlns="http://www.w3.org/2000/svg"
   version="1.1"
   width="425.32751"
   height="454.99911"
   id="svg2"
   xml:space="preserve"><metadata
     id="metadata8"><rdf:RDF><cc:Work
         rdf:about=""><dc:format>image/svg+xml</dc:format><dc:type
           rdf:resource="http://purl.org/dc/dcmitype/StillImage" /><dc:title></dc:title></cc:Work></rdf:RDF></metadata><defs
     id="defs6"><clipPath
       id="clipPath16"><path
         d="M 0,0 800,0 800,600 0,600 0,0 z"
         id="path18" /></clipPath><clipPath
       id="clipPath28"><path
         d="m 233.231,277.421 335.483,0 0,-145.159 -335.483,0 0,145.159 z"
         id="path30" /></clipPath><clipPath
       id="clipPath32"><path
         d="m 233.231,132.262 335.483,0 0,145.159 -335.483,0 0,-145.159 z"
         id="path34" /></clipPath><clipPath
       id="clipPath52"><path
         d="m 507.606,388.52 17.831,0 0,-17.832 -17.831,0 0,17.832 z"
         id="path54" /></clipPath><clipPath
       id="clipPath56"><path
         d="m 507.606,370.688 17.831,0 0,17.832 -17.831,0 0,-17.832 z"
         id="path58" /></clipPath><clipPath
       id="clipPath76"><path
         d="m 285.428,413.647 17.831,0 0,-17.831 -17.831,0 0,17.831 z"
         id="path78" /></clipPath><clipPath
       id="clipPath80"><path
         d="m 285.428,395.816 17.831,0 0,17.831 -17.831,0 0,-17.831 z"
         id="path82" /></clipPath><clipPath
       id="clipPath100"><path
         d="m 528.512,357.243 11.682,0 0,-11.682 -11.682,0 0,11.682 z"
         id="path102" /></clipPath><clipPath
       id="clipPath104"><path
         d="m 528.512,345.561 11.683,0 0,11.682 -11.683,0 0,-11.682 z"
         id="path106" /></clipPath><clipPath
       id="clipPath124"><path
         d="m 273.746,370.516 11.683,0 0,-11.683 -11.683,0 0,11.683 z"
         id="path126" /></clipPath><clipPath
       id="clipPath128"><path
         d="m 273.746,358.833 11.682,0 0,11.683 -11.682,0 0,-11.683 z"
         id="path130" /></clipPath><clipPath
       id="clipPath148"><path
         d="m 503.091,321.004 9.031,0 0,-9.031 -9.031,0 0,9.031 z"
         id="path150" /></clipPath><clipPath
       id="clipPath152"><path
         d="m 503.091,311.974 9.031,0 0,9.03 -9.031,0 0,-9.03 z"
         id="path154" /></clipPath><clipPath
       id="clipPath176"><path
         d="m 380.454,290.364 42.023,0 0,-86.543 -42.023,0 0,86.543 z"
         id="path178" /></clipPath><clipPath
       id="clipPath180"><path
         d="m 380.455,203.821 42.021,0 0,86.543 -42.021,0 0,-86.543 z"
         id="path182" /></clipPath><clipPath
       id="clipPath184"><path
         d="m 380.455,290.364 42.022,0 0,-86.543 -42.022,0 0,86.543 z"
         id="path186" /></clipPath><clipPath
       id="clipPath188"><path
         d="m 380.455,290.364 42.022,0 0,-86.543 -42.022,0 0,86.543 z"
         id="path190" /></clipPath><linearGradient
       x1="0"
       y1="0"
       x2="1"
       y2="0"
       id="linearGradient196"
       gradientUnits="userSpaceOnUse"
       gradientTransform="matrix(-3.8e-6,86.542969,-86.542969,-3.8e-6,401.4375,203.8125)"
       spreadMethod="pad"><stop
         id="stop198"
         style="stop-color:#231f20;stop-opacity:1"
         offset="0" /><stop
         id="stop200"
         style="stop-color:#ffffff;stop-opacity:1"
         offset="1" /></linearGradient><mask
       id="mask202"><g
         id="g204"><g
           clip-path="url(#clipPath184)"
           id="g206"><path
             d="m 380.455,290.364 42.021,0 0,-86.543 -42.021,0 0,86.543 z"
             id="path208"
             style="fill:#000000;fill-opacity:1;fill-rule:nonzero;stroke:none" /><g
             id="g210"><g
               id="g212" /><g
               id="g214"><g
                 clip-path="url(#clipPath188)"
                 id="g216"><g
                   id="g218"><g
                     id="g220"><g
                       id="g222"><g
                         id="g224"><path
                           d="m 380.455,290.364 42.021,0 0,-86.543 -42.021,0 0,86.543 z"
                           id="path226"
                           style="fill:url(#linearGradient196);stroke:none" /></g></g></g></g></g></g></g></g></g></mask><clipPath
       id="clipPath228"><path
         d="m 380.455,290.364 42.022,0 0,-86.543 -42.022,0 0,86.543 z"
         id="path230" /></clipPath><linearGradient
       x1="0"
       y1="0"
       x2="1"
       y2="0"
       id="linearGradient236"
       gradientUnits="userSpaceOnUse"
       gradientTransform="matrix(-3.8e-6,86.542969,-86.542969,-3.8e-6,401.4375,203.8125)"
       spreadMethod="pad"><stop
         id="stop238"
         style="stop-color:#ffffff;stop-opacity:1"
         offset="0" /><stop
         id="stop240"
         style="stop-color:#ffffff;stop-opacity:1"
         offset="1" /></linearGradient><clipPath
       id="clipPath280"><path
         d="m 376.942,297.559 49.046,0 0,-7.704 -49.046,0 0,7.704 z"
         id="path282" /></clipPath><clipPath
       id="clipPath284"><path
         d="m 376.942,289.855 49.046,0 0,7.703 -49.046,0 0,-7.703 z"
         id="path286" /></clipPath><clipPath
       id="clipPath344"><path
         d="m 353.812,496.261 62.813,0 0,-201.615 -62.813,0 0,201.615 z"
         id="path346" /></clipPath><clipPath
       id="clipPath348"><path
         d="m 353.812,294.646 62.813,0 0,201.614 -62.813,0 0,-201.614 z"
         id="path350" /></clipPath></defs><g
     transform="matrix(1.25,0,0,-1.25,-289.2245,620.32625)"
     id="g10"><g
       id="g12"><g
         clip-path="url(#clipPath16)"
         id="g14"><g
           transform="translate(571.6416,302.3877)"
           id="g20"><path
             d="m 0,0 c 0,-93.964 -76.172,-170.126 -170.126,-170.126 -93.959,0 -170.136,76.162 -170.136,170.126 0,93.957 76.177,170.124 170.136,170.124 C -76.172,170.124 0,93.957 0,0"
             id="path22"
             style="fill:#00caf0;fill-opacity:1;fill-rule:nonzero;stroke:none" /></g><g
           id="g24"><g
             id="g26" /><g
             id="g36"><g
               clip-path="url(#clipPath28)"
               id="g38"
               style="opacity:0.80000299"><g
                 id="g40"><g
                   clip-path="url(#clipPath32)"
                   id="g42"><g
                     transform="translate(401.5156,132.2617)"
                     id="g44"><path
                       d="m 0,0 c 83.247,0 152.487,59.808 167.198,138.797 -0.709,0.057 -1.42,0.107 -2.142,0.107 -12.435,0 -22.818,-8.711 -25.426,-20.357 -5.404,3.312 -11.735,5.255 -18.537,5.255 -19.155,0 -34.728,-15.151 -35.506,-34.115 -2.587,0.775 -5.325,1.206 -8.164,1.206 -12.91,0 -23.79,-8.619 -27.249,-20.409 -7.539,5.831 -16.969,9.336 -27.239,9.336 -11.971,0 -22.818,-4.741 -30.83,-12.415 -4.35,12.122 -15.907,20.809 -29.528,20.809 -6.509,0 -12.552,-1.979 -17.567,-5.365 -3.16,4.203 -8.173,6.933 -13.839,6.933 -1.057,0 -2.085,-0.11 -3.089,-0.29 -3.401,16.801 -18.244,29.448 -36.044,29.448 -2.433,0 -4.804,-0.249 -7.105,-0.698 0.01,0.233 0.036,0.461 0.036,0.698 0,10.098 -8.185,18.279 -18.278,18.279 -4.585,0 -8.764,-1.698 -11.973,-4.487 -4.217,7.414 -12.175,12.427 -21.316,12.427 -0.569,0 -1.126,-0.046 -1.686,-0.084 C -156.167,62.992 -85.447,0 0,0"
                       id="path46"
                       style="fill:#ffffff;fill-opacity:1;fill-rule:nonzero;stroke:none" /></g></g></g></g></g></g><g
           id="g48"><g
             id="g50" /><g
             id="g60"><g
               clip-path="url(#clipPath52)"
               id="g62"
               style="opacity:0.80000299"><g
                 id="g64"><g
                   clip-path="url(#clipPath56)"
                   id="g66"><g
                     transform="translate(524.6191,380.4258)"
                     id="g68"><path
                       d="m 0,0 c -4.012,0 -7.275,3.261 -7.275,7.275 0,0.454 -0.368,0.819 -0.822,0.819 -0.452,0 -0.819,-0.365 -0.819,-0.819 C -8.916,3.261 -12.18,0 -16.191,0 c -0.452,0 -0.822,-0.368 -0.822,-0.822 0,-0.451 0.37,-0.819 0.822,-0.819 4.011,0 7.275,-3.264 7.275,-7.275 0,-0.454 0.367,-0.821 0.819,-0.821 0.454,0 0.822,0.367 0.822,0.821 0,4.011 3.263,7.275 7.275,7.275 0.453,0 0.818,0.368 0.818,0.819 C 0.818,-0.368 0.453,0 0,0"
                       id="path70"
                       style="fill:#ffffff;fill-opacity:1;fill-rule:nonzero;stroke:none" /></g></g></g></g></g></g><g
           id="g72"><g
             id="g74" /><g
             id="g84"><g
               clip-path="url(#clipPath76)"
               id="g86"
               style="opacity:0.80000299"><g
                 id="g88"><g
                   clip-path="url(#clipPath80)"
                   id="g90"><g
                     transform="translate(302.439,405.5532)"
                     id="g92"><path
                       d="m 0,0 c -4.011,0 -7.275,3.262 -7.275,7.275 0,0.454 -0.368,0.819 -0.82,0.819 -0.453,0 -0.821,-0.365 -0.821,-0.819 C -8.916,3.262 -12.18,0 -16.19,0 c -0.453,0 -0.821,-0.367 -0.821,-0.821 0,-0.452 0.368,-0.819 0.821,-0.819 4.01,0 7.274,-3.264 7.274,-7.276 0,-0.453 0.368,-0.821 0.821,-0.821 0.452,0 0.82,0.368 0.82,0.821 0,4.012 3.264,7.276 7.275,7.276 0.453,0 0.82,0.367 0.82,0.819 C 0.82,-0.367 0.453,0 0,0"
                       id="path94"
                       style="fill:#ffffff;fill-opacity:1;fill-rule:nonzero;stroke:none" /></g></g></g></g></g></g><g
           id="g96"><g
             id="g98" /><g
             id="g108"><g
               clip-path="url(#clipPath100)"
               id="g110"
               style="opacity:0.80000299"><g
                 id="g112"><g
                   clip-path="url(#clipPath104)"
                   id="g114"><g
                     transform="translate(539.6592,351.9399)"
                     id="g116"><path
                       d="m 0,0 c -2.63,0 -4.768,2.138 -4.768,4.765 0,0.298 -0.24,0.538 -0.538,0.538 -0.297,0 -0.536,-0.24 -0.536,-0.538 C -5.842,2.138 -7.981,0 -10.609,0 c -0.295,0 -0.538,-0.24 -0.538,-0.538 0,-0.295 0.243,-0.538 0.538,-0.538 2.628,0 4.767,-2.138 4.767,-4.765 0,-0.298 0.239,-0.538 0.536,-0.538 0.298,0 0.538,0.24 0.538,0.538 0,2.627 2.138,4.765 4.768,4.765 0.295,0 0.535,0.243 0.535,0.538 C 0.535,-0.24 0.295,0 0,0"
                       id="path118"
                       style="fill:#ffffff;fill-opacity:1;fill-rule:nonzero;stroke:none" /></g></g></g></g></g></g><g
           id="g120"><g
             id="g122" /><g
             id="g132"><g
               clip-path="url(#clipPath124)"
               id="g134"
               style="opacity:0.80000299"><g
                 id="g136"><g
                   clip-path="url(#clipPath128)"
                   id="g138"><g
                     transform="translate(284.8916,365.2124)"
                     id="g140"><path
                       d="m 0,0 c -2.629,0 -4.768,2.138 -4.768,4.765 0,0.298 -0.24,0.538 -0.537,0.538 -0.297,0 -0.536,-0.24 -0.536,-0.538 C -5.841,2.138 -7.98,0 -10.609,0 c -0.295,0 -0.537,-0.24 -0.537,-0.538 0,-0.295 0.242,-0.538 0.537,-0.538 2.629,0 4.768,-2.138 4.768,-4.765 0,-0.298 0.239,-0.538 0.536,-0.538 0.297,0 0.537,0.24 0.537,0.538 0,2.627 2.139,4.765 4.768,4.765 0.295,0 0.537,0.243 0.537,0.538 C 0.537,-0.24 0.295,0 0,0"
                       id="path142"
                       style="fill:#ffffff;fill-opacity:1;fill-rule:nonzero;stroke:none" /></g></g></g></g></g></g><g
           id="g144"><g
             id="g146" /><g
             id="g156"><g
               clip-path="url(#clipPath148)"
               id="g158"
               style="opacity:0.80000299"><g
                 id="g160"><g
                   clip-path="url(#clipPath152)"
                   id="g162"><g
                     transform="translate(511.709,316.9043)"
                     id="g164"><path
                       d="M 0,0 C -2.032,0 -3.687,1.652 -3.687,3.685 -3.687,3.915 -3.872,4.1 -4.103,4.1 -4.331,4.1 -4.516,3.915 -4.516,3.685 -4.516,1.652 -6.168,0 -8.202,0 c -0.229,0 -0.416,-0.185 -0.416,-0.416 0,-0.228 0.187,-0.415 0.416,-0.415 2.034,0 3.686,-1.652 3.686,-3.684 0,-0.229 0.185,-0.416 0.413,-0.416 0.231,0 0.416,0.187 0.416,0.416 0,2.032 1.655,3.684 3.687,3.684 0.229,0 0.413,0.187 0.413,0.415 C 0.413,-0.185 0.229,0 0,0"
                       id="path166"
                       style="fill:#ffffff;fill-opacity:1;fill-rule:nonzero;stroke:none" /></g></g></g></g></g></g><g
           transform="translate(337.126,352.5283)"
           id="g168"><path
             d="m 0,0 c 4.222,9.415 17.499,22.846 18.062,23.413 0.489,0.495 1.206,0.677 1.874,0.492 0.666,-0.189 1.177,-0.725 1.334,-1.402 l 17.657,-76.414 c 0.14,-0.604 -0.023,-1.237 -0.436,-1.695 -0.412,-0.467 -1.023,-0.707 -1.638,-0.625 -0.007,0 -0.903,0.1 -2.363,0.1 -6.41,0 -21.854,-1.854 -26.794,-19.029 -0.22,-0.762 -0.885,-1.31 -1.675,-1.374 -0.052,-0.002 -0.105,-0.002 -0.157,-0.002 -0.727,0 -1.4,0.415 -1.718,1.083 C -11.901,-41.758 -4.287,-9.562 0,0"
             id="path170"
             style="fill:#e67000;fill-opacity:1;fill-rule:nonzero;stroke:none" /></g><g
           id="g172"><g
             id="g174" /><g
             id="g242"><g
               clip-path="url(#clipPath176)"
               id="g244"
               style="opacity:0.30000299"><g
                 id="g246"><g
                   clip-path="url(#clipPath180)"
                   id="g248"><g
                     id="g250"><g
                       id="g252" /><g
                       mask="url(#mask202)"
                       id="g254"><g
                         id="g256" /><g
                         id="g258"><g
                           clip-path="url(#clipPath228)"
                           id="g260"><g
                             id="g262"><g
                               id="g264"><g
                                 id="g266"><g
                                   id="g268"><path
                                   d="m 380.455,290.364 42.021,0 0,-86.543 -42.021,0 0,86.543 z"
                                   id="path270"
                                   style="fill:url(#linearGradient236);stroke:none" /></g></g></g></g></g></g></g></g></g></g></g></g></g><g
           transform="translate(425.291,296.5508)"
           id="g272"><path
             d="m 0,0 c -0.439,0.361 -1.014,0.51 -1.575,0.399 -4.53,-0.891 -12.063,-1.95 -22.251,-1.95 -10.189,0 -17.724,1.059 -22.25,1.95 -0.559,0.111 -1.136,-0.034 -1.577,-0.399 -0.441,-0.364 -0.696,-0.902 -0.696,-1.469 l 0,-10.318 c 0,-0.938 0.68,-1.734 1.604,-1.881 0.513,-0.082 12.685,-2.011 22.919,-2.011 10.232,0 22.404,1.929 22.919,2.011 0.922,0.147 1.604,0.943 1.604,1.881 l 0,10.318 C 0.697,-0.902 0.442,-0.364 0,0"
             id="path274"
             style="fill:#bf5d00;fill-opacity:1;fill-rule:nonzero;stroke:none" /></g><g
           id="g276"><g
             id="g278" /><g
             id="g288"><g
               clip-path="url(#clipPath280)"
               id="g290"
               style="opacity:0.19999701"><g
                 id="g292"><g
                   clip-path="url(#clipPath284)"
                   id="g294"><g
                     transform="translate(425.291,297.123)"
                     id="g296"><path
                       d="m 0,0 c -0.439,0.36 -1.014,0.51 -1.575,0.397 -4.53,-0.891 -12.063,-1.952 -22.251,-1.952 -10.189,0 -17.724,1.061 -22.25,1.952 -0.559,0.115 -1.136,-0.037 -1.577,-0.397 -0.441,-0.363 -0.696,-0.903 -0.696,-1.47 l 0,-5.717 c 0,0.572 0.255,1.111 0.696,1.47 0.441,0.364 1.018,0.515 1.577,0.402 4.526,-0.892 12.061,-1.953 22.25,-1.953 10.188,0 17.721,1.061 22.251,1.953 0.561,0.11 1.136,-0.039 1.575,-0.402 0.442,-0.359 0.697,-0.898 0.697,-1.47 l 0,5.717 C 0.697,-0.903 0.442,-0.363 0,0"
                       id="path298"
                       style="fill:#231f20;fill-opacity:1;fill-rule:nonzero;stroke:none" /></g></g></g></g></g></g><g
           transform="translate(401.4648,496.2607)"
           id="g300"><path
             d="m 0,0 c -9.34,0 -47.653,-48.961 -47.653,-106.655 0,-55.951 16.9,-91.826 17.071,-92.204 0.214,-0.468 0.61,-0.835 1.099,-1.004 0.419,-0.15 10.525,-3.651 29.483,-3.651 18.955,0 29.062,3.501 29.485,3.651 0.486,0.169 0.884,0.536 1.095,1.004 0.173,0.378 17.072,36.253 17.072,92.204 C 47.652,-48.961 9.339,0 0,0"
             id="path302"
             style="fill:#ff7c00;fill-opacity:1;fill-rule:nonzero;stroke:none" /></g><g
           transform="translate(429.3672,463.519)"
           id="g304"><path
             d="M 0,0 C -11.005,20.058 -23.084,32.742 -27.902,32.742 -32.723,32.742 -44.8,20.058 -55.805,0 -52.679,-0.92 -43.538,-3.163 -27.902,-3.163 -12.267,-3.163 -3.125,-0.92 0,0"
             id="path306"
             style="fill:#bf5d00;fill-opacity:1;fill-rule:nonzero;stroke:none" /></g><g
           transform="translate(401.4648,390.8604)"
           id="g308"><path
             d="m 0,0 c -8.13,0 -14.745,6.614 -14.745,14.744 0,8.131 6.615,14.745 14.745,14.745 8.13,0 14.743,-6.614 14.743,-14.745 C 14.743,6.614 8.13,0 0,0"
             id="path310"
             style="fill:#ffffff;fill-opacity:1;fill-rule:nonzero;stroke:none" /></g><g
           transform="translate(401.4648,421.3496)"
           id="g312"><path
             d="m 0,0 c -8.682,0 -15.745,-7.063 -15.745,-15.746 0,-8.681 7.063,-15.743 15.745,-15.743 8.681,0 15.743,7.062 15.743,15.743 C 15.743,-7.063 8.681,0 0,0 m 0,-2 c 7.59,0 13.743,-6.153 13.743,-13.746 0,-7.589 -6.153,-13.743 -13.743,-13.743 -7.592,0 -13.745,6.154 -13.745,13.743 C -13.745,-8.153 -7.592,-2 0,-2"
             id="path314"
             style="fill:#e66e00;fill-opacity:1;fill-rule:nonzero;stroke:none" /></g><g
           transform="translate(401.4648,347.2817)"
           id="g316"><path
             d="m 0,0 c -5.506,0 -9.985,4.479 -9.985,9.983 0,5.506 4.479,9.985 9.985,9.985 5.505,0 9.983,-4.479 9.983,-9.985 C 9.983,4.479 5.505,0 0,0"
             id="path318"
             style="fill:#ffffff;fill-opacity:1;fill-rule:nonzero;stroke:none" /></g><g
           transform="translate(401.4648,368.25)"
           id="g320"><path
             d="m 0,0 c -6.057,0 -10.985,-4.928 -10.985,-10.985 0,-6.057 4.928,-10.983 10.985,-10.983 6.057,0 10.983,4.926 10.983,10.983 C 10.983,-4.928 6.057,0 0,0 m 0,-2 c 4.963,0 8.983,-4.023 8.983,-8.985 0,-4.962 -4.02,-8.983 -8.983,-8.983 -4.962,0 -8.985,4.021 -8.985,8.983 C -8.985,-6.023 -4.962,-2 0,-2"
             id="path322"
             style="fill:#e66e00;fill-opacity:1;fill-rule:nonzero;stroke:none" /></g><g
           transform="translate(390.3867,402.938)"
           id="g324"><path
             d="m 0,0 c 0,7.592 6.153,13.746 13.744,13.746 3.115,0 5.976,-1.048 8.282,-2.794 -2.51,3.312 -6.473,5.46 -10.948,5.46 -7.592,0 -13.745,-6.154 -13.745,-13.746 0,-4.475 2.149,-8.44 5.463,-10.95 C 1.048,-5.979 0,-3.115 0,0"
             id="path326"
             style="fill:#e6e7e8;fill-opacity:1;fill-rule:nonzero;stroke:none" /></g><g
           transform="translate(395.147,354.5986)"
           id="g328"><path
             d="m 0,0 c 0,4.962 4.023,8.985 8.984,8.985 1.797,0 3.464,-0.54 4.866,-1.448 -1.6,2.471 -4.369,4.114 -7.532,4.114 -4.962,0 -8.985,-4.023 -8.985,-8.985 0,-3.163 1.645,-5.935 4.118,-7.535 C 0.541,-3.463 0,-1.799 0,0"
             id="path330"
             style="fill:#e6e7e8;fill-opacity:1;fill-rule:nonzero;stroke:none" /></g><g
           transform="translate(465.4375,352.5283)"
           id="g332"><path
             d="m 0,0 c -4.22,9.415 -17.497,22.846 -18.062,23.413 -0.487,0.495 -1.206,0.677 -1.873,0.492 -0.666,-0.189 -1.176,-0.725 -1.333,-1.402 l -17.658,-76.414 c -0.139,-0.604 0.024,-1.237 0.437,-1.695 0.411,-0.467 1.023,-0.707 1.638,-0.625 0.009,0 0.903,0.1 2.364,0.1 6.408,0 21.851,-1.854 26.795,-19.029 0.215,-0.762 0.883,-1.31 1.671,-1.374 0.052,-0.002 0.106,-0.002 0.159,-0.002 0.729,0 1.397,0.415 1.719,1.083 C 11.901,-41.758 4.287,-9.562 0,0"
             id="path334"
             style="fill:#ff7c00;fill-opacity:1;fill-rule:nonzero;stroke:none" /></g><g
           transform="translate(435.4482,451.2002)"
           id="g336"><path
             d="m 0,0 c 6.474,-16.294 9.882,-50.928 6.101,-74.519 3.557,-3.721 13.237,-14.248 16.731,-22.039 4.141,-9.24 11.382,-39.592 -2.592,-72.017 0.815,-1.587 1.531,-3.333 2.102,-5.303 0.219,-0.762 0.884,-1.309 1.675,-1.374 0.052,-0.005 0.102,-0.005 0.155,-0.005 0.728,0 1.4,0.418 1.718,1.086 16.048,33.695 8.435,65.892 4.145,75.456 -3.492,7.791 -13.177,18.316 -16.731,22.039 0.264,4.832 0.413,9.847 0.413,15.035 C 13.717,-38.922 7.775,-17.555 0,0"
             id="path338"
             style="fill:#ff9633;fill-opacity:1;fill-rule:nonzero;stroke:none" /></g><g
           id="g340"><g
             id="g342" /><g
             id="g352"><g
               clip-path="url(#clipPath344)"
               id="g354"
               style="opacity:0.19999701"><g
                 id="g356"><g
                   clip-path="url(#clipPath348)"
                   id="g358"><g
                     transform="translate(365.6216,377.7954)"
                     id="g360"><path
                       d="m 0,0 c 0,57.692 38.313,106.656 47.654,106.656 0.876,0 2.014,-0.438 3.349,-1.269 -6.51,8.311 -12.246,13.078 -15.16,13.078 -9.34,0 -47.653,-48.961 -47.653,-106.655 0,-55.951 16.9,-91.826 17.071,-92.204 0.214,-0.468 0.61,-0.835 1.099,-1.004 0.201,-0.071 2.617,-0.9 7.112,-1.751 C 8.464,-69.134 0,-39.606 0,0"
                       id="path362"
                       style="fill:#231f20;fill-opacity:1;fill-rule:nonzero;stroke:none" /></g></g></g></g></g></g></g></g></g></svg>